<svg xmlns="http://www.w3.org/2000/svg" width="1024" height="1024" viewBox="0 0 1024 1024">
  <title>Veganizer - Logo Amélioré - Modern Clean Design</title>
  <defs>
    <!-- Gradient pour la saucisse -->
    <linearGradient id="sausageGradient" x1="0%" y1="0%" x2="100%" y2="100%">
      <stop offset="0%" style="stop-color:#dc2626;stop-opacity:1" />
      <stop offset="50%" style="stop-color:#b91c1c;stop-opacity:1" />
      <stop offset="100%" style="stop-color:#991b1b;stop-opacity:1" />
    </linearGradient>
    
    <!-- Gradient pour la feuille -->
    <linearGradient id="leafGradient" x1="0%" y1="0%" x2="100%" y2="100%">
      <stop offset="0%" style="stop-color:#34D399;stop-opacity:1" />
      <stop offset="100%" style="stop-color:#10B981;stop-opacity:1" />
    </linearGradient>
    
    <!-- Gradient de fond épuré -->
    <radialGradient id="cleanBg" cx="50%" cy="50%" r="60%">
      <stop offset="0%" style="stop-color:#ffffff;stop-opacity:1" />
      <stop offset="100%" style="stop-color:#f9fafb;stop-opacity:1" />
    </radialGradient>
    
    <!-- Ombre moderne et subtile -->
    <filter id="modernShadow" x="-50%" y="-50%" width="200%" height="200%">
      <feDropShadow dx="4" dy="8" stdDeviation="16" flood-color="#064e3b" flood-opacity="0.15"/>
    </filter>
    
    <!-- Effet de lueur pour modernité -->
    <filter id="glow" x="-50%" y="-50%" width="200%" height="200%">
      <feGaussianBlur stdDeviation="8" result="coloredBlur"/>
      <feMerge> 
        <feMergeNode in="coloredBlur"/>
        <feMergeNode in="SourceGraphic"/>
      </feMerge>
    </filter>
  </defs>
  
  <!-- Arrière-plan moderne épuré -->
  <rect width="1024" height="1024" rx="200" ry="200" fill="url(#cleanBg)" stroke="#e5e7eb" stroke-width="2"/>
  
  <!-- Conteneur principal centré avec mise à l'échelle massive -->
  <g transform="translate(512,512) scale(8)">
    
    
    <!-- Symbole central : Saucisse vers Feuille -->
    <g filter="url(#modernShadow)">
      <!-- Côté gauche : Saucisse -->
      <g>
        <!-- Corps de la saucisse (cylindrique) -->
        <path d="M -80 -100 
                 Q -75 -102, -70 -100
                 Q -35 -98, -15 30
                 Q -5 58, 0 60
                 Q 5 58, -10 30
                 Q -30 -102, -65 -104
                 Q -75 -106, -80 -100 Z" 
              fill="url(#sausageGradient)"/>
        
        <!-- Texture de saucisse (lignes) -->
        <g opacity="0.6">
          <path d="M -70 -90 Q -35 -88, -5 40" fill="none" stroke="#7f1d1d" stroke-width="2"/>
          <path d="M -75 -80 Q -40 -78, -10 50" fill="none" stroke="#7f1d1d" stroke-width="2"/>
        </g>
      </g>
      
      <!-- Côté droit : Feuille -->
      <g>
        <!-- Forme de feuille -->
        <path d="M 0 60 
                 Q 25 30, 55 -10
                 Q 75 -50, 80 -80
                 Q 80 -100, 75 -95
                 Q 70 -85, 60 -65
                 Q 45 -30, 25 10
                 Q 12 40, 0 60 Z" 
              fill="url(#leafGradient)"/>
        
        <!-- Nervure centrale de la feuille -->
        <path d="M 0 60 Q 40 -20, 80 -100" 
              fill="none" 
              stroke="#059669" 
              stroke-width="4" 
              stroke-linecap="round"/>
        
        <!-- Nervures secondaires -->
        <g opacity="0.7">
          <path d="M 20 25 Q 40 10, 60 -10" fill="none" stroke="#059669" stroke-width="3" stroke-linecap="round"/>
          <path d="M 35 -10 Q 55 -30, 70 -50" fill="none" stroke="#059669" stroke-width="3" stroke-linecap="round"/>
          <path d="M 50 -45 Q 65 -65, 75 -80" fill="none" stroke="#059669" stroke-width="3" stroke-linecap="round"/>
        </g>
      </g>
    </g>
    
    
    <!-- Effet de brillance moderne subtil -->
    <g opacity="0.4">
      <ellipse cx="-60" cy="-80" rx="15" ry="30" fill="#ffffff" transform="rotate(-20)"/>
    </g>
    
  </g>
  
  
</svg>