<?xml version="1.0" standalone="no"?>
<!DOCTYPE svg PUBLIC "-//W3C//DTD SVG 20010904//EN"
 "http://www.w3.org/TR/2001/REC-SVG-20010904/DTD/svg10.dtd">
<svg version="1.0" xmlns="http://www.w3.org/2000/svg"
 width="1024.000000pt" height="1024.000000pt" viewBox="0 0 1024.000000 1024.000000"
 preserveAspectRatio="xMidYMid meet">

<g transform="translate(0.000000,1024.000000) scale(0.100000,-0.100000)"
fill="#000000" stroke="none">
<path d="M1875 9053 c-349 -74 -620 -351 -689 -703 -15 -78 -16 -339 -14
-3270 l3 -3185 24 -75 c108 -347 383 -587 730 -638 67 -10 6326 -9 6390 1 78
12 227 63 291 99 110 61 229 170 298 270 46 67 108 201 129 278 17 62 18 236
18 3310 l0 3245 -28 78 c-113 321 -350 532 -665 593 -114 22 -6384 19 -6487
-3z m5585 -1668 c28 -25 25 -43 -21 -153 -93 -218 -471 -1015 -929 -1957 -51
-104 -114 -235 -140 -290 -26 -55 -100 -208 -165 -340 -64 -132 -193 -400
-285 -595 -448 -945 -539 -1127 -591 -1179 -34 -34 -49 -38 -211 -46 -89 -4
-125 -2 -150 8 -65 28 -22 -53 -613 1157 -114 234 -246 504 -293 600 -172 356
-243 502 -397 815 -149 304 -385 798 -645 1350 -65 138 -152 321 -194 409 -42
87 -76 166 -76 176 0 46 1 46 503 54 496 7 530 5 580 -34 31 -25 87 -133 257
-500 73 -157 170 -364 215 -460 45 -96 99 -211 120 -255 629 -1344 1060 -2244
1089 -2274 13 -13 20 -12 56 4 49 22 60 39 50 74 -4 14 -47 118 -95 231 -189
446 -209 499 -209 570 0 61 5 75 88 245 215 440 395 811 558 1155 147 308 289
612 439 937 114 249 138 286 199 313 17 7 158 9 433 6 374 -3 409 -5 427 -21z"/>
</g>
</svg>
